<?xml version="1.0" standalone="no"?>
<!DOCTYPE svg PUBLIC "-//W3C//DTD SVG 20010904//EN"
 "http://www.w3.org/TR/2001/REC-SVG-20010904/DTD/svg10.dtd">
<svg version="1.0" xmlns="http://www.w3.org/2000/svg"
 width="640.000000pt" height="1280.000000pt" viewBox="0 0 640.000000 1280.000000"
 preserveAspectRatio="xMidYMid meet">
<metadata>
Created by potrace 1.15, written by Peter Selinger 2001-2017
</metadata>
<g transform="translate(0.000000,1280.000000) scale(0.100000,-0.100000)"
fill="#000000" stroke="none">
<path d="M4165 12791 c-269 -71 -691 -556 -937 -1078 -218 -462 -294 -1174
-212 -1978 32 -314 110 -805 131 -826 5 -5 23 -3 41 3 l32 12 87 -93 c49 -51
100 -114 115 -139 30 -50 433 -482 450 -482 19 0 88 80 88 101 0 13 -75 98
-207 236 -222 230 -205 217 -283 198 -22 -6 -38 6 -123 94 -53 55 -97 105 -97
112 0 6 19 29 43 50 80 74 52 92 414 -276 236 -240 326 -326 334 -318 8 8 -72
96 -296 325 -169 172 -314 323 -322 336 -14 20 -14 25 1 46 14 23 14 37 -9
183 -41 263 -56 453 -62 773 -6 337 5 484 52 719 51 248 159 515 290 712 133
200 326 336 490 347 111 7 181 -27 249 -122 10 -15 24 -19 57 -18 36 2 51 -3
79 -26 l35 -30 -33 -30 c-17 -16 -32 -37 -32 -46 0 -18 84 -76 110 -76 9 0 25
7 36 15 27 21 47 18 73 -9 38 -40 25 -58 -64 -89 -44 -16 -87 -32 -95 -36 -12
-7 -15 -44 -15 -222 -1 -181 -4 -231 -23 -321 -63 -302 -191 -614 -383 -934
-44 -72 -79 -138 -79 -147 0 -9 38 -40 88 -73 48 -31 89 -58 91 -60 4 -4 8
-28 10 -61 1 -18 381 -273 406 -273 26 0 78 87 73 122 -2 16 -46 49 -168 125
-211 132 -233 144 -251 132 -8 -5 -23 -9 -33 -9 -30 0 -176 99 -176 120 0 17
51 88 73 102 18 11 74 -18 166 -85 124 -91 132 -97 283 -181 75 -42 143 -76
152 -76 37 0 80 116 55 146 -14 17 -361 194 -381 194 -6 0 -25 -12 -40 -27
l-29 -28 -85 44 c-56 28 -84 48 -84 60 0 9 13 38 30 64 22 35 36 47 54 47 13
0 142 -54 287 -120 254 -116 325 -141 287 -103 -9 9 -135 71 -280 138 -250
117 -263 124 -266 152 -2 20 7 42 28 72 29 39 34 42 63 35 18 -3 53 -17 80
-30 42 -22 47 -28 47 -59 0 -26 6 -39 25 -51 45 -29 337 -146 351 -140 32 12
50 116 26 146 -22 26 -326 134 -360 127 -29 -6 -114 17 -149 40 -31 21 -30 67
3 110 20 26 32 33 60 33 40 0 84 -17 134 -51 20 -13 102 -44 183 -68 171 -52
174 -51 184 41 4 41 2 58 -10 70 -15 14 -261 78 -301 78 -11 0 -31 -14 -46
-31 -26 -32 -26 -32 -77 -20 -28 7 -59 18 -69 25 -16 12 -16 16 0 62 23 70 30
77 68 76 18 -1 117 -17 219 -37 214 -40 225 -41 233 -18 13 32 26 164 36 361
40 784 -169 1412 -597 1792 -118 105 -231 147 -328 121z m678 -1414 c25 -33
18 -42 -48 -58 -65 -17 -85 -34 -85 -75 0 -28 -5 -35 -26 -40 -36 -9 -51 10
-59 78 -7 65 -10 61 90 100 83 32 101 32 128 -5z m103 -232 c34 -52 7 -72 -98
-74 -49 -1 -62 -6 -92 -32 -27 -23 -43 -30 -68 -27 -33 3 -33 3 -36 64 -2 42
1 64 10 72 13 10 64 15 210 20 51 2 59 -1 74 -23z m-206 -191 c26 -30 57 -39
155 -44 96 -5 100 -6 115 -32 11 -21 12 -32 4 -45 -10 -16 -31 -18 -188 -19
-137 -1 -178 2 -187 12 -14 18 -7 108 11 129 16 20 74 19 90 -1z m-12 -196 c7
-7 12 -22 12 -34 0 -39 25 -50 141 -68 63 -10 121 -22 131 -27 23 -12 25 -77
3 -85 -12 -5 -350 55 -409 73 -16 4 -18 12 -13 55 9 75 28 98 80 98 24 0 48
-5 55 -12z"/>
<path d="M3987 9604 c3 -8 41 -42 85 -75 44 -34 82 -68 85 -76 3 -8 0 -26 -8
-39 -9 -18 -10 -30 -3 -42 20 -32 388 -322 409 -322 17 0 75 91 75 118 0 16
-48 56 -196 164 -107 79 -208 146 -223 149 -15 3 -69 36 -120 72 -96 69 -115
78 -104 51z"/>
<path d="M3852 9465 c2 -9 140 -132 307 -275 213 -182 308 -257 315 -250 7 7
7 16 1 25 -18 27 -599 515 -613 515 -7 0 -12 -7 -10 -15z"/>
<path d="M3714 9336 c-5 -12 17 -39 78 -99 47 -45 90 -96 97 -114 8 -18 85
-101 190 -201 192 -183 220 -206 244 -196 25 9 69 80 65 105 -3 21 -271 282
-366 356 -32 26 -34 26 -62 10 -15 -9 -33 -17 -40 -17 -6 0 -39 26 -73 57
-134 124 -126 118 -133 99z"/>
<path d="M3550 9203 c0 -9 41 -58 90 -109 50 -50 90 -98 90 -106 0 -9 -7 -21
-15 -28 -8 -7 -15 -20 -15 -28 0 -18 408 -432 426 -432 20 0 84 79 84 104 0
31 -391 416 -422 416 -13 0 -60 39 -123 100 -55 55 -104 100 -108 100 -4 0 -7
-8 -7 -17z"/>
<path d="M3050 8809 c0 -6 45 -60 100 -120 55 -60 100 -114 101 -121 0 -7 1
-28 2 -46 2 -27 34 -67 216 -262 122 -132 221 -230 231 -230 21 0 90 73 90 95
0 9 -97 119 -216 245 -209 222 -218 230 -252 228 -33 -2 -42 5 -141 110 -98
104 -131 129 -131 101z"/>
<path d="M2880 8682 c0 -6 50 -65 110 -131 61 -67 110 -124 110 -126 0 -3 -9
-24 -20 -45 l-20 -40 118 -132 c66 -73 162 -180 215 -238 53 -58 97 -112 97
-121 0 -20 -31 -49 -53 -49 -9 0 -167 169 -352 374 -184 206 -340 378 -346
382 -6 3 -15 2 -20 -3 -12 -12 12 -42 197 -244 301 -327 484 -534 484 -550 0
-22 -35 -51 -57 -47 -10 2 -109 104 -220 228 -111 124 -212 233 -224 242 -19
16 -24 16 -49 3 -16 -8 -34 -15 -39 -15 -6 0 -63 58 -127 130 -108 119 -134
140 -134 106 0 -7 49 -67 109 -134 64 -73 111 -134 114 -150 7 -36 442 -520
473 -528 12 -3 35 1 52 10 29 15 30 14 36 -7 3 -12 35 -213 71 -447 35 -234
74 -489 87 -568 15 -96 19 -149 12 -159 -5 -8 -46 -30 -91 -48 -263 -106 -484
-282 -628 -500 -137 -207 -194 -391 -195 -627 0 -101 5 -135 34 -250 72 -279
157 -456 269 -558 59 -54 177 -102 177 -71 0 5 -20 33 -44 63 -135 166 -191
361 -166 573 30 249 146 438 360 582 131 88 370 197 390 177 6 -6 46 -278 90
-605 43 -328 93 -690 110 -805 17 -115 39 -279 50 -364 10 -85 31 -225 45
-310 18 -107 26 -193 26 -280 0 -95 8 -175 35 -335 50 -296 51 -302 101 -289
28 8 39 -11 62 -103 26 -102 27 -151 4 -160 -30 -10 -63 -45 -63 -67 0 -11 16
-103 35 -205 112 -596 124 -990 39 -1280 -22 -78 -58 -145 -122 -230 -180
-241 -446 -437 -662 -487 -111 -25 -341 -30 -460 -10 -192 34 -331 91 -405
166 -59 61 -51 69 181 189 110 57 229 123 266 148 133 87 207 202 236 362 14
79 14 108 4 199 -16 143 -64 319 -115 417 -77 151 -224 266 -397 312 -89 24
-272 24 -360 0 -218 -59 -405 -209 -501 -402 -60 -121 -80 -215 -80 -370 0
-194 35 -358 122 -581 161 -412 546 -650 1089 -671 429 -17 754 75 1036 293
270 209 447 496 516 836 21 104 23 137 22 413 -2 308 -13 480 -56 822 -16 135
-19 190 -12 210 9 23 4 46 -28 136 -21 60 -38 115 -38 124 0 8 13 27 30 43 35
33 39 16 -64 277 -72 184 -75 193 -62 225 12 30 9 60 -29 298 -24 146 -75 470
-114 720 -39 250 -100 644 -136 875 -37 231 -67 445 -68 475 l-2 55 94 -2
c257 -7 512 -130 731 -352 277 -281 383 -632 339 -1124 -26 -300 -92 -476
-240 -648 -27 -31 -49 -63 -49 -71 0 -23 238 -271 284 -295 22 -12 63 -44 91
-72 43 -45 85 -66 85 -43 0 4 -25 32 -56 62 -74 73 -78 82 -59 126 8 21 13 45
10 54 -3 9 -55 62 -115 116 -61 54 -110 107 -110 116 0 25 31 39 56 25 12 -7
108 -84 213 -172 106 -88 197 -160 203 -160 35 0 -2 39 -187 195 -113 96 -205
177 -205 181 0 13 31 39 45 39 7 0 65 -38 128 -85 63 -47 124 -85 134 -85 11
0 28 9 38 20 24 26 27 26 95 -16 32 -20 64 -33 70 -29 15 9 -2 29 -49 56 -20
12 -50 40 -66 63 -18 24 -69 66 -124 103 -52 34 -98 68 -103 76 -11 20 27 67
54 67 11 0 65 -25 121 -55 65 -36 112 -55 134 -55 18 0 55 -11 82 -25 44 -22
61 -23 61 -5 0 3 -22 19 -50 35 -27 16 -51 34 -51 40 -1 5 -2 28 -3 50 l-1 40
-97 47 c-58 28 -98 53 -98 62 0 16 26 46 40 46 5 0 79 -27 165 -60 86 -33 168
-60 183 -60 26 0 26 0 7 18 -11 10 -83 43 -160 72 -77 29 -146 57 -152 63 -20
15 -15 35 10 51 21 14 31 13 111 -11 l89 -27 18 25 c37 48 41 50 77 47 19 -2
37 2 39 8 4 13 -142 83 -192 91 -42 7 -52 24 -37 58 10 22 16 24 79 22 61 -2
74 1 128 32 58 34 58 35 35 45 -14 6 -37 23 -52 39 -20 19 -37 27 -63 27 -23
0 -38 5 -42 16 -8 22 13 64 33 64 21 0 134 51 134 60 0 4 -7 14 -17 21 -9 8
-22 29 -30 46 -7 18 -19 33 -27 33 -32 0 -36 25 -20 111 38 198 -10 424 -151
714 -134 274 -326 484 -580 633 -270 159 -481 212 -878 219 -247 5 -248 5
-257 28 -5 12 -23 117 -40 231 -17 115 -60 398 -95 629 -35 231 -69 458 -76
503 -11 83 -12 85 -73 152 -221 244 -326 354 -403 420 -49 41 -120 111 -159
155 -64 73 -104 102 -104 77z m1258 -5364 c5 -7 36 -94 67 -193 36 -112 76
-215 106 -272 47 -87 89 -198 89 -234 0 -11 -25 -27 -77 -48 -43 -17 -86 -31
-95 -31 -30 0 -78 183 -70 270 3 44 -7 99 -47 263 -51 207 -57 238 -44 250 11
12 60 8 71 -5z"/>
<path d="M2375 8280 c-7 -11 19 -42 148 -183 42 -46 77 -90 77 -97 0 -6 -7
-24 -16 -40 -11 -18 -14 -33 -8 -43 5 -8 114 -130 242 -271 174 -191 237 -253
250 -249 30 10 82 66 82 87 0 31 -437 513 -489 540 -23 12 -69 53 -102 91 -93
106 -160 175 -169 175 -5 0 -12 -5 -15 -10z"/>
<path d="M2204 8137 c-4 -11 117 -145 372 -416 207 -221 381 -401 386 -401 4
0 8 6 8 13 0 13 -733 809 -750 815 -6 2 -13 -3 -16 -11z"/>
<path d="M2025 7990 c-4 -6 50 -68 118 -138 69 -71 133 -144 143 -164 11 -20
132 -151 271 -292 222 -228 254 -256 271 -247 26 14 72 69 72 87 0 14 -469
512 -497 528 -10 6 -25 3 -43 -8 -16 -9 -35 -16 -43 -16 -9 0 -71 59 -138 130
-118 125 -140 142 -154 120z"/>
<path d="M1860 7826 c0 -8 59 -70 130 -138 l131 -123 -7 -38 -6 -38 119 -113
c65 -62 185 -176 268 -254 82 -78 154 -142 160 -142 33 0 91 74 79 103 -2 7
-120 126 -261 262 -253 247 -256 249 -295 246 -39 -2 -44 2 -167 124 -122 120
-151 142 -151 111z"/>
<path d="M1690 7666 c0 -8 46 -56 102 -108 57 -51 120 -110 141 -130 l39 -38
-22 -35 c-19 -31 -20 -38 -9 -55 8 -10 137 -125 287 -254 230 -199 276 -235
291 -226 24 12 71 68 71 84 0 12 -112 118 -295 281 -55 49 -127 114 -160 146
-33 32 -84 71 -113 87 -29 16 -111 81 -181 145 -71 65 -134 117 -140 117 -6 0
-11 -6 -11 -14z"/>
<path d="M1530 7484 c7 -11 186 -163 398 -339 212 -176 410 -342 440 -368 51
-46 71 -54 79 -31 5 15 -877 747 -905 752 -21 4 -23 3 -12 -14z"/>
<path d="M1370 7307 c0 -13 69 -70 180 -148 61 -43 135 -115 156 -151 16 -27
584 -439 601 -436 9 2 30 20 46 41 l31 37 -20 25 c-34 44 -568 455 -590 455
-12 0 -27 -7 -34 -15 -7 -8 -21 -15 -32 -15 -11 0 -85 50 -165 110 -140 106
-173 124 -173 97z"/>
<path d="M1215 7120 c-4 -6 -5 -13 -4 -14 2 -2 72 -49 156 -104 83 -56 155
-107 160 -114 4 -7 8 -35 8 -62 l0 -49 314 -199 c173 -109 321 -198 328 -198
15 0 63 68 63 91 0 15 -100 86 -479 342 -89 60 -154 97 -170 97 -16 0 -87 41
-186 106 -179 119 -180 120 -190 104z"/>
<path d="M1074 6915 c-4 -9 0 -22 7 -29 35 -33 1034 -596 1047 -591 13 5 13 8
-4 24 -10 10 -235 143 -499 296 -264 153 -495 286 -513 297 -29 18 -33 18 -38
3z"/>
<path d="M956 6692 c-15 -15 5 -28 150 -99 86 -41 180 -95 210 -119 58 -48
684 -354 723 -354 22 0 51 45 51 79 0 11 -10 27 -22 35 -71 46 -646 346 -664
346 -11 0 -30 -11 -42 -25 -12 -14 -29 -25 -37 -25 -8 0 -93 38 -189 84 -96
46 -177 81 -180 78z"/>
<path d="M836 6451 c-8 -13 12 -25 84 -51 97 -35 252 -99 276 -115 12 -7 24
-27 27 -42 7 -35 7 -35 237 -120 406 -150 500 -182 513 -177 25 9 42 52 31 82
-8 24 -46 43 -349 174 -187 80 -350 147 -361 147 -12 1 -27 -6 -34 -14 -7 -8
-19 -15 -26 -15 -7 0 -95 32 -195 70 -194 74 -195 75 -203 61z"/>
<path d="M742 6194 c2 -13 50 -29 188 -66 101 -27 190 -54 197 -59 6 -6 13
-32 15 -57 l3 -47 55 -18 c94 -30 674 -171 699 -170 25 1 38 14 47 51 13 48 8
50 -566 228 -138 43 -184 53 -215 48 -32 -4 -78 6 -220 50 -98 31 -185 56
-193 56 -7 0 -12 -7 -10 -16z"/>
<path d="M675 5941 c-3 -5 -1 -12 5 -16 13 -8 1149 -235 1178 -235 14 0 22 5
20 12 -3 8 -221 56 -589 130 -321 64 -589 117 -596 117 -6 1 -14 -3 -18 -8z"/>
<path d="M1066 5603 c-4 -5 -14 -23 -22 -42 l-14 -34 -68 6 c-37 3 -126 11
-199 18 -141 12 -177 9 -152 -16 10 -9 71 -19 197 -30 121 -10 198 -22 230
-34 26 -10 65 -21 87 -25 84 -13 648 -57 692 -54 43 3 47 5 55 36 10 39 -3 70
-35 77 -25 6 -734 105 -752 105 -6 0 -15 -3 -19 -7z"/>
<path d="M1050 5315 c-19 -11 -69 -14 -218 -15 -185 0 -241 -8 -227 -31 4 -5
87 -9 196 -9 105 0 198 -4 208 -10 10 -5 21 -23 24 -40 4 -19 15 -33 29 -38
37 -13 749 2 776 17 17 9 22 21 22 50 0 65 2 65 -339 73 -168 3 -337 9 -376
12 -51 4 -77 2 -95 -9z"/>
<path d="M1650 5099 c-58 -4 -307 -19 -555 -34 -247 -14 -456 -28 -463 -30 -6
-2 -12 -9 -12 -15 0 -6 36 -10 93 -10 195 0 923 47 1087 70 36 5 69 10 73 10
5 0 5 5 2 10 -7 11 -67 11 -225 -1z"/>
<path d="M1780 5013 c-239 -27 -642 -75 -665 -79 -41 -9 -55 -22 -55 -54 0
-15 -7 -33 -15 -40 -9 -7 -86 -24 -173 -36 -186 -28 -202 -31 -202 -44 0 -15
58 -12 203 11 91 14 154 19 202 15 58 -5 131 4 424 53 194 33 359 66 367 72
33 27 6 111 -34 107 -9 0 -33 -3 -52 -5z"/>
<path d="M1670 4791 c-145 -32 -382 -81 -513 -107 -19 -4 -36 -18 -48 -39 -25
-41 -44 -49 -201 -80 -70 -13 -145 -32 -165 -42 l-38 -17 31 -3 c17 -2 106 12
198 32 l167 36 26 -21 c14 -11 36 -20 49 -20 45 0 719 161 734 175 7 8 14 31
14 50 0 78 -36 83 -254 36z"/>
<path d="M1543 4520 c-229 -59 -351 -95 -369 -109 -28 -22 -89 -42 -269 -87
-113 -28 -142 -41 -128 -55 5 -5 87 12 182 37 96 25 183 44 194 42 11 -2 28
-16 37 -33 9 -16 25 -31 36 -33 11 -1 103 22 205 52 102 30 260 76 350 101 96
27 172 55 184 66 18 18 18 22 5 61 -14 39 -18 43 -50 45 -19 1 -189 -38 -377
-87z"/>
<path d="M1755 4344 c-104 -36 -327 -108 -495 -160 -378 -118 -404 -128 -408
-148 -2 -9 2 -16 10 -16 7 0 184 59 393 131 209 73 455 156 548 186 92 30 167
59 167 64 0 15 -16 10 -215 -57z"/>
<path d="M1675 4202 c-181 -71 -340 -134 -352 -140 -18 -10 -23 -22 -23 -50 0
-20 -4 -43 -8 -50 -5 -6 -84 -45 -177 -85 -93 -39 -170 -78 -173 -84 -10 -32
40 -19 200 50 126 54 181 73 203 70 23 -3 105 30 360 147 182 84 338 159 348
168 13 11 16 24 12 42 -8 29 -33 60 -49 60 -6 -1 -159 -58 -341 -128z"/>
<path d="M1761 3975 c-223 -125 -324 -187 -350 -215 -22 -24 -87 -67 -166
-110 -132 -72 -179 -106 -169 -121 11 -18 35 -7 185 81 84 50 161 90 170 90
10 0 31 -12 48 -26 l31 -26 43 25 c99 60 571 384 581 400 14 22 -11 71 -39 74
-11 2 -161 -76 -334 -172z"/>
<path d="M2125 3991 c-11 -11 -209 -166 -440 -346 -231 -179 -421 -333 -423
-341 -2 -8 4 -17 12 -20 20 -8 60 22 332 247 437 361 554 461 548 470 -7 12
-6 12 -29 -10z"/>
<path d="M1984 3751 c-121 -115 -239 -229 -264 -255 l-44 -46 17 -46 17 -46
-79 -87 c-44 -47 -95 -102 -115 -120 -37 -36 -46 -61 -22 -61 7 0 63 51 123
114 60 62 127 123 150 134 57 29 513 524 513 557 0 24 -41 65 -65 65 -7 0
-111 -94 -231 -209z"/>
<path d="M2303 3798 c-16 -18 -119 -141 -227 -272 l-198 -240 7 -41 c6 -46 17
-29 -139 -229 -38 -49 -56 -81 -52 -92 3 -8 12 -14 19 -12 6 3 57 63 113 134
96 123 102 129 142 134 41 5 42 6 203 230 199 276 249 348 249 361 0 17 -48
59 -68 59 -10 0 -32 -15 -49 -32z"/>
<path d="M2463 3708 c-6 -7 -90 -140 -187 -294 -106 -169 -176 -291 -176 -306
0 -23 -114 -225 -161 -286 -18 -24 -16 -52 5 -52 6 0 49 64 94 141 l84 142 53
-7 c36 -4 56 -2 63 7 23 29 322 595 322 610 0 19 -46 57 -70 57 -10 0 -22 -6
-27 -12z"/>
<path d="M2591 3578 c-10 -24 -111 -241 -225 -482 -196 -418 -216 -470 -174
-453 14 5 438 937 438 962 0 29 -21 14 -39 -27z"/>
<path d="M2696 3568 c-19 -30 -236 -596 -236 -616 0 -9 14 -28 32 -42 l32 -27
-52 -149 c-56 -161 -61 -187 -35 -182 17 3 19 8 85 198 22 63 46 119 54 123 8
4 21 22 30 39 25 49 204 586 204 613 0 19 -10 30 -40 45 -50 25 -56 25 -74 -2z"/>
<path d="M4690 3553 c-23 -9 -60 -45 -60 -60 0 -7 53 -85 118 -173 114 -155
118 -159 154 -160 33 0 42 -7 95 -72 56 -69 93 -95 93 -66 0 7 -22 40 -48 73
-65 81 -75 100 -62 124 5 11 10 24 10 30 0 20 -252 311 -268 310 -10 0 -24 -3
-32 -6z"/>
<path d="M2906 3469 c-8 -19 -51 -159 -96 -313 -63 -215 -80 -286 -75 -313 4
-24 -4 -72 -28 -161 -41 -150 -51 -202 -39 -202 20 0 34 34 75 177 l43 148 43
6 c23 3 47 12 52 20 4 8 20 64 35 124 14 61 46 191 70 290 24 99 44 187 44
197 0 21 -35 45 -78 54 -29 6 -33 4 -46 -27z"/>
<path d="M4470 3447 c-14 -7 -26 -21 -28 -32 -1 -11 44 -103 100 -205 l103
-185 53 0 53 0 57 -85 c31 -46 62 -83 67 -83 23 4 13 34 -34 104 -28 41 -51
84 -51 95 0 12 -13 46 -28 76 -38 72 -169 277 -195 306 -23 25 -59 28 -97 9z"/>
<path d="M3103 3375 c-33 -112 -202 -930 -194 -938 24 -24 39 5 59 110 11 59
50 262 87 451 36 189 65 360 63 380 l-3 37 -12 -40z"/>
<path d="M3211 3392 c-10 -18 -101 -557 -101 -597 0 -19 8 -28 35 -39 19 -8
38 -21 41 -29 3 -8 -2 -68 -10 -133 -19 -139 -20 -190 -5 -200 21 -12 27 12
44 161 10 92 24 167 35 193 18 40 60 346 77 558 5 66 4 72 -18 88 -31 22 -86
21 -98 -2z"/>
<path d="M4336 3392 c-5 -8 34 -94 212 -467 77 -160 105 -210 119 -210 11 0
17 6 15 17 -2 15 -273 577 -310 646 -13 23 -27 28 -36 14z"/>
<path d="M3421 3356 c-11 -13 -51 -429 -51 -540 0 -48 5 -63 25 -88 29 -34 30
-49 14 -202 -11 -101 -10 -110 6 -122 10 -7 22 -11 26 -8 5 3 9 53 10 112 0
150 9 195 44 225 l29 25 10 287 9 288 -23 19 c-26 21 -83 24 -99 4z"/>
<path d="M3630 3334 c-20 -23 -15 -543 5 -599 8 -22 18 -100 22 -174 6 -93 12
-136 21 -139 9 -3 12 30 12 140 0 147 5 168 40 168 9 0 25 9 35 20 18 20 18
29 2 288 -17 263 -18 267 -43 290 -29 26 -76 29 -94 6z"/>
<path d="M3824 3295 c-3 -8 15 -195 40 -416 33 -298 49 -406 60 -418 14 -13
16 -12 22 4 7 17 -79 782 -92 828 -6 21 -23 22 -30 2z"/>
</g>
</svg>
