<?xml version="1.0" encoding="iso-8859-1"?>
<!-- Uploaded to: SVG Repo, www.svgrepo.com, Transformed by: SVG Repo Mixer Tools -->
<svg height="800px" width="800px" version="1.1" id="Layer_1" xmlns="http://www.w3.org/2000/svg" xmlns:xlink="http://www.w3.org/1999/xlink" 
	 viewBox="0 0 496.2 496.2" xml:space="preserve">
<path style="fill:#FABC3D;" d="M496.2,248.1C496.2,111.1,385.1,0,248.1,0S0,111.1,0,248.1s111.1,248.1,248.1,248.1
	S496.2,385.1,496.2,248.1z"/>
<path style="fill:#AA6F29;" d="M306.4,334.5c0-22.3,8.2-28.9,8.2-46.8c0-39.5-30.2-48.3-67.5-48.3s-67.5,8.8-67.5,48.3
	c0,17.9,8.2,25.1,8.2,46.8c0,21.6-25.5,42.4-25.5,71.7c0,49.6,37.9,62.9,84.8,62.9c46.8,0,84.7-13.3,84.7-62.9
	C331.9,376.9,306.4,356.8,306.4,334.5z"/>
<path style="fill:#7A5529;" d="M276.2,302.9c0,16.3-13.2,29.5-29.5,29.5s-29.5-13.2-29.5-29.5s13.2-29.5,29.5-29.5
	C263,273.3,276.2,286.5,276.2,302.9z"/>
<path style="fill:#4C331B;" d="M268.6,302.9c0,12.1-9.8,21.9-21.9,21.9s-21.9-9.8-21.9-21.9s9.8-21.9,21.9-21.9
	C258.8,281,268.6,290.8,268.6,302.9z"/>
<g>
	<path style="fill:#634421;" d="M246.6,324.8c-1,0-1.9-0.1-2.9-0.2C244.6,324.7,245.6,324.8,246.6,324.8z"/>
	<path style="fill:#634421;" d="M246.7,324.8c1.1,0,2.1-0.1,3.1-0.3C248.8,324.6,247.7,324.8,246.7,324.8L246.7,324.8z"/>
</g>
<g>
	<path style="fill:#704C21;" d="M246.6,324.8L246.6,324.8L246.6,324.8L246.6,324.8z"/>
	<path style="fill:#704C21;" d="M263.6,288.9v-2.7l-4.8-211.8H235l-4.8,211.5v2.6l-0.3,28.3c3.4,4.1,8.3,7,13.9,7.7
		c1,0.1,1.9,0.2,2.9,0.2c0,0,0,0,0.1,0c1.1,0,2.1-0.1,3.2-0.3c5.7-0.8,10.7-3.8,14.1-8.1L263.6,288.9z"/>
	<path style="fill:#704C21;" d="M246.6,28.2c-8.5,0-15.4,3.1-15.4,12.4v30.8c0,9.3,6.9,16.9,15.4,16.9S262,80.7,262,71.4V40.7
		C262,31.3,255.1,28.2,246.6,28.2z"/>
	<path style="fill:#704C21;" d="M246.6,26.9c-0.5,0-2.3-1.2-4.2-1.1c-1.8,0-6,6-6,6c0,9.3,4.6,16.9,10.2,16.9
		c5.7,0,10.2-7.6,10.2-16.9c0,0-4.4-6.1-6.2-6.1C248.8,25.8,247.2,26.9,246.6,26.9z"/>
</g>
<g>
	<path style="fill:#7A5529;" d="M287.6,408.4c0,2.8-2.3,5.1-5.1,5.1h-69.4c-2.8,0-5.1-2.3-5.1-5.1l0,0c0-2.8,2.3-5.1,5.1-5.1h69.4
		C285.3,403.3,287.6,405.6,287.6,408.4L287.6,408.4z"/>
	<path style="fill:#7A5529;" d="M272.5,408.4c0,1.7-1.4,3.2-3.2,3.2h-43.1c-1.7,0-3.2-1.4-3.2-3.2l0,0c0-1.7,1.4-3.2,3.2-3.2h43.1
		C271.1,405.2,272.5,406.7,272.5,408.4L272.5,408.4z"/>
</g>
<g style="opacity:0.5;">
	<polygon style="fill:#D3D3D3;" points="234.9,408.9 233.5,408.9 236.9,62.7 238,62.7 	"/>
	<polygon style="fill:#D3D3D3;" points="255.1,408.6 253.8,408.6 252,49.4 253.1,49.4 	"/>
	<polygon style="fill:#D3D3D3;" points="260.2,408.6 258.9,408.6 255.7,62.9 256.7,62.9 	"/>
	<polygon style="fill:#D3D3D3;" points="240.2,408.6 238.8,408.6 240.7,49.6 241.8,49.6 	"/>
	<polygon style="fill:#D3D3D3;" points="250.1,408.9 248.8,408.9 248.3,36.6 249.3,36.6 	"/>
	<polygon style="fill:#D3D3D3;" points="244.8,408.9 243.4,408.9 244.5,36.7 245.5,36.7 	"/>
</g>
<g>
	<path style="fill:#5F431D;" d="M264.2,39.8c-1,0-1.7-0.4-1.7-0.8v-4.3c0-0.4,0.8-0.8,1.7-0.8l0,0c1,0,1.7,0.4,1.7,0.8V39
		C265.9,39.4,265.1,39.8,264.2,39.8L264.2,39.8z"/>
	<path style="fill:#5F431D;" d="M264.2,53.5c-1,0-1.7-0.4-1.7-0.8v-4.3c0-0.4,0.8-0.8,1.7-0.8l0,0c1,0,1.7,0.4,1.7,0.8v4.3
		C265.9,53.2,265.1,53.5,264.2,53.5L264.2,53.5z"/>
	<path style="fill:#5F431D;" d="M263.2,62H257c-1,0-1.7,0.8-1.7,1.7c0,1,0.8,1.7,1.7,1.7h6.2c1,0,1.7-0.8,1.7-1.7
		C264.9,62.7,264.2,62,263.2,62z"/>
	<path style="fill:#5F431D;" d="M264.2,66.6c-1,0-1.7-0.4-1.7-0.8v-4.3c0-0.4,0.8-0.8,1.7-0.8l0,0c1,0,1.7,0.4,1.7,0.8v4.3
		C265.9,66.3,265.1,66.6,264.2,66.6L264.2,66.6z"/>
	<path style="fill:#5F431D;" d="M228.8,39.8c1,0,1.7-0.4,1.7-0.8v-4.3c0-0.4-0.8-0.8-1.7-0.8l0,0c-1,0-1.7,0.4-1.7,0.8V39
		C227,39.4,227.8,39.8,228.8,39.8L228.8,39.8z"/>
	<path style="fill:#5F431D;" d="M228.8,53.5c1,0,1.7-0.4,1.7-0.8v-4.3c0-0.4-0.8-0.8-1.7-0.8l0,0c-1,0-1.7,0.4-1.7,0.8v4.3
		C227,53.2,227.8,53.5,228.8,53.5L228.8,53.5z"/>
	<path style="fill:#5F431D;" d="M264.9,36.8c0-1-0.8-1.7-1.7-1.7h-14.3c-1,0-1.7,0.8-1.7,1.7c0,1,0.8,1.7,1.7,1.7h14.3
		C264.2,38.5,264.9,37.8,264.9,36.8z"/>
	<path style="fill:#5F431D;" d="M263.2,48.9h-9.9c-1,0-1.7,0.8-1.7,1.7c0,1,0.8,1.7,1.7,1.7h9.9c1,0,1.7-0.8,1.7-1.7
		C264.9,49.6,264.2,48.9,263.2,48.9z"/>
	<path style="fill:#5F431D;" d="M244.9,35.1h-15.1c-1,0-1.7,0.8-1.7,1.7c0,1,0.8,1.7,1.7,1.7h15.1c1,0,1.7-0.8,1.7-1.7
		S245.8,35.1,244.9,35.1z"/>
	<path style="fill:#5F431D;" d="M240.5,48.9h-10.8c-1,0-1.7,0.8-1.7,1.7c0,1,0.8,1.7,1.7,1.7h10.8c1,0,1.7-0.8,1.7-1.7
		C242.2,49.6,241.5,48.9,240.5,48.9z"/>
	<path style="fill:#5F431D;" d="M236.8,62h-7.1c-1,0-1.7,0.8-1.7,1.7c0,1,0.8,1.7,1.7,1.7h7.1c1,0,1.7-0.8,1.7-1.7
		C238.5,62.7,237.8,62,236.8,62z"/>
	<path style="fill:#5F431D;" d="M228.8,66.6c1,0,1.7-0.4,1.7-0.8v-4.3c0-0.4-0.8-0.8-1.7-0.8l0,0c-1,0-1.7,0.4-1.7,0.8v4.3
		C227,66.3,227.8,66.6,228.8,66.6L228.8,66.6z"/>
</g>
<g>
	<path style="fill:#543919;" d="M246.4,36.9c0,1.2-1,2.2-2.2,2.2s-2.2-1-2.2-2.2s1-2.2,2.2-2.2S246.4,35.7,246.4,36.9z"/>
	<path style="fill:#543919;" d="M251.6,36.9c0,1.2-1,2.2-2.2,2.2s-2.2-1-2.2-2.2s1-2.2,2.2-2.2S251.6,35.7,251.6,36.9z"/>
	<path style="fill:#543919;" d="M243.2,50.5c0,1.2-1,2.2-2.2,2.2s-2.2-1-2.2-2.2s1-2.2,2.2-2.2S243.2,49.2,243.2,50.5z"/>
	<path style="fill:#543919;" d="M254.8,50.5c0,1.2-1,2.2-2.2,2.2s-2.2-1-2.2-2.2s1-2.2,2.2-2.2C253.8,48.2,254.8,49.2,254.8,50.5z"
		/>
	<path style="fill:#543919;" d="M239.5,63.7c0,1.2-1,2.2-2.2,2.2s-2.2-1-2.2-2.2s1-2.2,2.2-2.2S239.5,62.5,239.5,63.7z"/>
	<path style="fill:#543919;" d="M258.5,63.7c0,1.2-1,2.2-2.2,2.2s-2.2-1-2.2-2.2s1-2.2,2.2-2.2S258.5,62.5,258.5,63.7z"/>
</g>
</svg>